<mxfile host="Electron" agent="Mozilla/5.0 (Windows NT 10.0; Win64; x64) AppleWebKit/537.36 (KHTML, like Gecko) draw.io/28.1.2 Chrome/138.0.7204.243 Electron/37.4.0 Safari/537.36" version="28.1.2">
  <diagram name="Halaman-1" id="cWxNmYk4HJXTnCRtBX9K">
    <mxGraphModel dx="1389" dy="764" grid="1" gridSize="10" guides="1" tooltips="1" connect="1" arrows="1" fold="1" page="1" pageScale="1" pageWidth="850" pageHeight="1100" math="0" shadow="0">
      <root>
        <mxCell id="0" />
        <mxCell id="1" parent="0" />
        <mxCell id="9vIDsrFq6yi80uX3ZT8P-1" value="false" style="edgeStyle=orthogonalEdgeStyle;rounded=0;orthogonalLoop=1;jettySize=auto;html=1;fontFamily=Helvetica;fontSize=12;fontColor=default;" parent="1" source="9vIDsrFq6yi80uX3ZT8P-3" target="9vIDsrFq6yi80uX3ZT8P-13" edge="1">
          <mxGeometry relative="1" as="geometry" />
        </mxCell>
        <mxCell id="9vIDsrFq6yi80uX3ZT8P-26" value="true" style="edgeStyle=orthogonalEdgeStyle;rounded=0;orthogonalLoop=1;jettySize=auto;html=1;exitX=1;exitY=0.5;exitDx=0;exitDy=0;" parent="1" source="9vIDsrFq6yi80uX3ZT8P-3" edge="1">
          <mxGeometry relative="1" as="geometry">
            <mxPoint x="390" y="160" as="targetPoint" />
          </mxGeometry>
        </mxCell>
        <mxCell id="9vIDsrFq6yi80uX3ZT8P-3" value="Paket 3" style="rhombus;whiteSpace=wrap;html=1;" parent="1" vertex="1">
          <mxGeometry x="241" y="120" width="80" height="80" as="geometry" />
        </mxCell>
        <mxCell id="9vIDsrFq6yi80uX3ZT8P-4" style="edgeStyle=orthogonalEdgeStyle;rounded=0;orthogonalLoop=1;jettySize=auto;html=1;exitX=0.5;exitY=1;exitDx=0;exitDy=0;entryX=0.5;entryY=0;entryDx=0;entryDy=0;fontFamily=Helvetica;fontSize=12;fontColor=default;" parent="1" source="9vIDsrFq6yi80uX3ZT8P-5" target="9vIDsrFq6yi80uX3ZT8P-7" edge="1">
          <mxGeometry relative="1" as="geometry" />
        </mxCell>
        <mxCell id="9vIDsrFq6yi80uX3ZT8P-5" value="admin = biaya langganan * 0.05" style="whiteSpace=wrap;html=1;" parent="1" vertex="1">
          <mxGeometry x="397" y="133" width="190" height="60" as="geometry" />
        </mxCell>
        <mxCell id="9vIDsrFq6yi80uX3ZT8P-6" style="edgeStyle=orthogonalEdgeStyle;rounded=0;orthogonalLoop=1;jettySize=auto;html=1;exitX=0.5;exitY=1;exitDx=0;exitDy=0;entryX=0.5;entryY=0;entryDx=0;entryDy=0;fontFamily=Helvetica;fontSize=12;fontColor=default;" parent="1" source="9vIDsrFq6yi80uX3ZT8P-7" target="9vIDsrFq6yi80uX3ZT8P-10" edge="1">
          <mxGeometry relative="1" as="geometry" />
        </mxCell>
        <mxCell id="9vIDsrFq6yi80uX3ZT8P-7" value="total = biaya langganan + admin" style="whiteSpace=wrap;html=1;" parent="1" vertex="1">
          <mxGeometry x="397" y="250" width="190" height="60" as="geometry" />
        </mxCell>
        <mxCell id="9vIDsrFq6yi80uX3ZT8P-27" style="edgeStyle=orthogonalEdgeStyle;rounded=0;orthogonalLoop=1;jettySize=auto;html=1;exitX=1;exitY=0.5;exitDx=0;exitDy=0;entryX=1;entryY=0.5;entryDx=0;entryDy=0;" parent="1" source="9vIDsrFq6yi80uX3ZT8P-8" edge="1" target="9vIDsrFq6yi80uX3ZT8P-23">
          <mxGeometry relative="1" as="geometry">
            <mxPoint x="500" y="1230" as="targetPoint" />
            <Array as="points">
              <mxPoint x="701" y="490" />
              <mxPoint x="701" y="1220" />
            </Array>
          </mxGeometry>
        </mxCell>
        <mxCell id="9vIDsrFq6yi80uX3ZT8P-8" value="Output &quot;Total bayar:&quot;, total" style="shape=parallelogram;perimeter=parallelogramPerimeter;whiteSpace=wrap;html=1;fixedSize=1;" parent="1" vertex="1">
          <mxGeometry x="394.5" y="460" width="195" height="60" as="geometry" />
        </mxCell>
        <mxCell id="9vIDsrFq6yi80uX3ZT8P-9" style="edgeStyle=orthogonalEdgeStyle;rounded=0;orthogonalLoop=1;jettySize=auto;html=1;exitX=0.5;exitY=1;exitDx=0;exitDy=0;fontFamily=Helvetica;fontSize=12;fontColor=default;" parent="1" source="9vIDsrFq6yi80uX3ZT8P-10" target="9vIDsrFq6yi80uX3ZT8P-8" edge="1">
          <mxGeometry relative="1" as="geometry" />
        </mxCell>
        <mxCell id="9vIDsrFq6yi80uX3ZT8P-10" value="Output &quot;Paket Gold&lt;div&gt;Keuntungan: Akses Premium + playlist kustom + mode offline.&quot;&lt;/div&gt;" style="shape=parallelogram;perimeter=parallelogramPerimeter;whiteSpace=wrap;html=1;fixedSize=1;" parent="1" vertex="1">
          <mxGeometry x="331" y="350" width="322" height="80" as="geometry" />
        </mxCell>
        <mxCell id="9vIDsrFq6yi80uX3ZT8P-11" value="true" style="edgeStyle=orthogonalEdgeStyle;rounded=0;orthogonalLoop=1;jettySize=auto;html=1;exitX=1;exitY=0.5;exitDx=0;exitDy=0;fontFamily=Helvetica;fontSize=12;fontColor=default;" parent="1" source="9vIDsrFq6yi80uX3ZT8P-13" edge="1">
          <mxGeometry relative="1" as="geometry">
            <mxPoint x="392" y="600" as="targetPoint" />
          </mxGeometry>
        </mxCell>
        <mxCell id="9vIDsrFq6yi80uX3ZT8P-12" value="false" style="edgeStyle=orthogonalEdgeStyle;rounded=0;orthogonalLoop=1;jettySize=auto;html=1;fontFamily=Helvetica;fontSize=12;fontColor=default;" parent="1" source="9vIDsrFq6yi80uX3ZT8P-13" target="9vIDsrFq6yi80uX3ZT8P-22" edge="1">
          <mxGeometry relative="1" as="geometry" />
        </mxCell>
        <mxCell id="9vIDsrFq6yi80uX3ZT8P-13" value="Paket 4" style="rhombus;whiteSpace=wrap;html=1;" parent="1" vertex="1">
          <mxGeometry x="242" y="560" width="80" height="80" as="geometry" />
        </mxCell>
        <mxCell id="9vIDsrFq6yi80uX3ZT8P-14" style="edgeStyle=orthogonalEdgeStyle;rounded=0;orthogonalLoop=1;jettySize=auto;html=1;exitX=0.5;exitY=1;exitDx=0;exitDy=0;entryX=0.5;entryY=0;entryDx=0;entryDy=0;fontFamily=Helvetica;fontSize=12;fontColor=default;" parent="1" source="9vIDsrFq6yi80uX3ZT8P-15" target="9vIDsrFq6yi80uX3ZT8P-17" edge="1">
          <mxGeometry relative="1" as="geometry" />
        </mxCell>
        <mxCell id="9vIDsrFq6yi80uX3ZT8P-15" value="admin = biaya langganan * 0.07" style="whiteSpace=wrap;html=1;" parent="1" vertex="1">
          <mxGeometry x="397" y="590" width="190" height="60" as="geometry" />
        </mxCell>
        <mxCell id="9vIDsrFq6yi80uX3ZT8P-16" style="edgeStyle=orthogonalEdgeStyle;rounded=0;orthogonalLoop=1;jettySize=auto;html=1;exitX=0.5;exitY=1;exitDx=0;exitDy=0;entryX=0.5;entryY=0;entryDx=0;entryDy=0;fontFamily=Helvetica;fontSize=12;fontColor=default;" parent="1" source="9vIDsrFq6yi80uX3ZT8P-17" target="9vIDsrFq6yi80uX3ZT8P-20" edge="1">
          <mxGeometry relative="1" as="geometry" />
        </mxCell>
        <mxCell id="9vIDsrFq6yi80uX3ZT8P-17" value="total = biaya langganan + admin" style="whiteSpace=wrap;html=1;" parent="1" vertex="1">
          <mxGeometry x="397" y="710" width="190" height="60" as="geometry" />
        </mxCell>
        <mxCell id="9vIDsrFq6yi80uX3ZT8P-28" style="edgeStyle=orthogonalEdgeStyle;rounded=0;orthogonalLoop=1;jettySize=auto;html=1;exitX=1;exitY=0.5;exitDx=0;exitDy=0;" parent="1" source="9vIDsrFq6yi80uX3ZT8P-18" edge="1">
          <mxGeometry relative="1" as="geometry">
            <mxPoint x="700" y="960" as="targetPoint" />
          </mxGeometry>
        </mxCell>
        <mxCell id="9vIDsrFq6yi80uX3ZT8P-18" value="Output &quot;Total bayar:&quot;, total" style="shape=parallelogram;perimeter=parallelogramPerimeter;whiteSpace=wrap;html=1;fixedSize=1;" parent="1" vertex="1">
          <mxGeometry x="394.5" y="930" width="195" height="60" as="geometry" />
        </mxCell>
        <mxCell id="9vIDsrFq6yi80uX3ZT8P-19" style="edgeStyle=orthogonalEdgeStyle;rounded=0;orthogonalLoop=1;jettySize=auto;html=1;exitX=0.5;exitY=1;exitDx=0;exitDy=0;fontFamily=Helvetica;fontSize=12;fontColor=default;" parent="1" source="9vIDsrFq6yi80uX3ZT8P-20" target="9vIDsrFq6yi80uX3ZT8P-18" edge="1">
          <mxGeometry relative="1" as="geometry" />
        </mxCell>
        <mxCell id="9vIDsrFq6yi80uX3ZT8P-20" value="Output &quot;Paket Platinum&lt;div&gt;Keuntungan: Akses semua fitur + playlist kustom + mode offline + konten eksklusif artis.&quot;&lt;/div&gt;" style="shape=parallelogram;perimeter=parallelogramPerimeter;whiteSpace=wrap;html=1;fixedSize=1;" parent="1" vertex="1">
          <mxGeometry x="327" y="810" width="331" height="90" as="geometry" />
        </mxCell>
        <mxCell id="M_PiWz6Us4BWntbfAIbD-1" style="edgeStyle=orthogonalEdgeStyle;rounded=0;orthogonalLoop=1;jettySize=auto;html=1;exitX=1;exitY=0.5;exitDx=0;exitDy=0;" edge="1" parent="1" source="9vIDsrFq6yi80uX3ZT8P-22">
          <mxGeometry relative="1" as="geometry">
            <mxPoint x="430" y="1180" as="targetPoint" />
          </mxGeometry>
        </mxCell>
        <mxCell id="9vIDsrFq6yi80uX3ZT8P-22" value="Output &quot;Pilihan paket tidak tersedia&quot;" style="shape=parallelogram;perimeter=parallelogramPerimeter;whiteSpace=wrap;html=1;fixedSize=1;" parent="1" vertex="1">
          <mxGeometry x="190" y="1037" width="180" height="60" as="geometry" />
        </mxCell>
        <mxCell id="9vIDsrFq6yi80uX3ZT8P-23" value="END" style="ellipse;whiteSpace=wrap;html=1;" parent="1" vertex="1">
          <mxGeometry x="358" y="1180" width="134" height="80" as="geometry" />
        </mxCell>
        <mxCell id="9vIDsrFq6yi80uX3ZT8P-25" style="edgeStyle=orthogonalEdgeStyle;rounded=0;orthogonalLoop=1;jettySize=auto;html=1;exitX=0.5;exitY=1;exitDx=0;exitDy=0;" parent="1" source="9vIDsrFq6yi80uX3ZT8P-24" edge="1">
          <mxGeometry relative="1" as="geometry">
            <mxPoint x="279" y="120" as="targetPoint" />
          </mxGeometry>
        </mxCell>
        <mxCell id="9vIDsrFq6yi80uX3ZT8P-24" value="B" style="shape=hexagon;perimeter=hexagonPerimeter2;whiteSpace=wrap;html=1;fixedSize=1;" parent="1" vertex="1">
          <mxGeometry x="219" width="120" height="80" as="geometry" />
        </mxCell>
      </root>
    </mxGraphModel>
  </diagram>
</mxfile>
